<svg xmlns="http://www.w3.org/2000/svg" xmlns:xlink:href="data:img/png;base64 width="24" height="24" viewBox="0 0 24 24">
    <defs>
        <path id="a" d="M13 13h3.243a1 1 0 0 0 0-2H13V7.757a1 1 0 0 0-2 0V11H7.757a1 1 0 0 0 0 2H11v3.243a1 1 0 0 0 2 0V13zm-1 10C5.925 23 1 18.075 1 12S5.925 1 12 1s11 4.925 11 11-4.925 11-11 11z"/>
    </defs>
    <g fill="green" fill-rule="evenodd">
        <mask id="b" fill="#fff">
            <use xlink:href="#a"/>
        </mask>
        <use fill="#000" fill-rule="nonzero" xlink:href="#a"/>
        <g fill="#484B58" mask="url(#b)">
            <path d="M0 0h24v24H0z"/>
        </g>
    </g>
</svg>
